{
	"asset":{
		"version":"2.0",
		"generator":"Created using the official Cinema 4D glTF Exporter 1.000x284978"
	},
	"scenes":[{
		"nodes":[0,
		1,
		2]
	}],
	"nodes":[{
		"name":"camera.desktop",
		"translation":[0.0,
		0.0,
		45.0],
		"camera":0,
		"rotation":[0.0,
		0.0,
		0.0,
		-1.0],
		"scale":[1.0,
		1.0,
		1.0]
	},
	{
		"name":"camera.iphone",
		"translation":[0.0,
		0.0,
		27.0],
		"camera":1,
		"rotation":[0.0,
		0.0,
		0.0,
		-1.0],
		"scale":[1.0,
		1.0,
		1.0]
	},
	{
		"name":"slab",
		"translation":[0.0,
		0.0,
		0.0],
		"rotation":[9.124330077954888e-25,
		-1.2246468525851679e-16,
		-7.450580596923828e-9,
		1.0],
		"scale":[1.0,
		1.0,
		1.0],
		"children":[3,
		4,
		5]
	},
	{
		"name":"slab_cover",
		"translation":[7.470342227349278e-17,
		1.0949195847026832e-25,
		0.029999999329447748],
		"rotation":[0.0,
		-4.440892098500626e-16,
		0.0,
		-1.0],
		"scale":[1.0,
		1.0,
		1.0],
		"mesh":0
	},
	{
		"name":"slab_inside",
		"translation":[7.347880950074885e-18,
		1.0949195847026832e-25,
		-0.029999999329447748],
		"rotation":[0.0,
		-5.665538686387998e-16,
		0.0,
		-1.0],
		"scale":[1.0,
		1.0,
		1.0],
		"mesh":1
	},
	{
		"name":"card",
		"translation":[2.7917345673664686e-23,
		1.7725000381469727,
		0.0],
		"rotation":[0.0,
		-1.2246468525851679e-16,
		0.0,
		-1.0],
		"scale":[1.0,
		1.0,
		1.0],
		"children":[6,
		7,
		8,
		9,
		10,
		11]
	},
	{
		"name":"card_front",
		"translation":[1.4759304889366831e-8,
		-2.9125900268554689,
		0.029900001361966134],
		"rotation":[8.442310521584746e-24,
		5.665538686387998e-16,
		-1.4901161193847657e-8,
		-1.0],
		"scale":[1.0,
		1.0,
		1.0],
		"mesh":2
	},
	{
		"name":"card_back",
		"translation":[1.4759304889366831e-8,
		-2.9125900268554689,
		-0.029899999499320985],
		"rotation":[-1.1944370254746493e-16,
		5.665538686387998e-16,
		-1.053671194739536e-8,
		-1.0],
		"scale":[1.0,
		1.0,
		1.0],
		"mesh":3
	},
	{
		"name":"label_front",
		"translation":[-7.442068294949422e-8,
		3.124000072479248,
		0.029899999499320985],
		"rotation":[-1.1944370254746493e-16,
		5.665538686387998e-16,
		-1.053671194739536e-8,
		-1.0],
		"scale":[1.0,
		1.0,
		1.0],
		"mesh":4
	},
	{
		"name":"label_back",
		"translation":[-7.442068294949422e-8,
		3.124000072479248,
		-0.029899999499320985],
		"rotation":[-1.1944370254746493e-16,
		5.665538686387998e-16,
		-1.4901161193847657e-8,
		-1.0],
		"scale":[1.0,
		1.0,
		1.0],
		"mesh":5
	},
	{
		"name":"card_edge",
		"translation":[1.475930577754525e-8,
		-2.9125900268554689,
		1.3047912750252522e-9],
		"rotation":[6.617444900424222e-24,
		4.440892098500626e-16,
		1.4901161193847657e-8,
		1.0],
		"scale":[1.0,
		1.0,
		1.0],
		"mesh":6
	},
	{
		"name":"label_edge",
		"translation":[-7.442068294949422e-8,
		3.124000072479248,
		-1.3047932734266965e-9],
		"rotation":[6.617444900424222e-24,
		4.440892098500626e-16,
		1.4901161193847657e-8,
		1.0],
		"scale":[1.0,
		1.0,
		1.0],
		"mesh":7
	}],
	"materials":[{
		"pbrMetallicRoughness":{
			"baseColorFactor":[0.8,
			0.8,
			0.8,
			0.0],
			"metallicFactor":1.0,
			"roughnessFactor":0.3
		},
		"emissiveFactor":[0.0,
		0.0,
		0.0],
		"alphaMode":"BLEND",
		"doubleSided":false,
		"name":"PBR"
	},
	{
		"pbrMetallicRoughness":{
			"baseColorFactor":[1.0,
			0.0,
			0.0,
			1.0],
			"metallicFactor":1.0,
			"roughnessFactor":0.3
		},
		"emissiveFactor":[0.0,
		0.0,
		0.0],
		"alphaMode":"OPAQUE",
		"doubleSided":false,
		"name":"card.font"
	},
	{
		"pbrMetallicRoughness":{
			"baseColorFactor":[0.8,
			0.8,
			0.8,
			1.0],
			"metallicFactor":1.0,
			"roughnessFactor":0.3
		},
		"emissiveFactor":[0.0,
		0.0,
		0.0],
		"alphaMode":"OPAQUE",
		"doubleSided":false,
		"name":"card.back"
	},
	{
		"pbrMetallicRoughness":{
			"baseColorFactor":[0.8,
			0.8,
			0.8,
			1.0],
			"metallicFactor":1.0,
			"roughnessFactor":0.3
		},
		"emissiveFactor":[0.0,
		0.0,
		0.0],
		"alphaMode":"OPAQUE",
		"doubleSided":false,
		"name":"label.front"
	},
	{
		"pbrMetallicRoughness":{
			"baseColorFactor":[0.8,
			0.8,
			0.8,
			1.0],
			"metallicFactor":1.0,
			"roughnessFactor":0.3
		},
		"emissiveFactor":[0.0,
		0.0,
		0.0],
		"alphaMode":"OPAQUE",
		"doubleSided":false,
		"name":"label.back"
	},
	{
		"pbrMetallicRoughness":{
			"baseColorFactor":[0.7000000000000001,
			0.7000000000000001,
			0.7000000000000001,
			1.0],
			"metallicFactor":1.0,
			"roughnessFactor":1.0
		},
		"emissiveFactor":[0.0,
		0.0,
		0.0],
		"alphaMode":"OPAQUE",
		"doubleSided":false,
		"name":"edge"
	}],
	"meshes":[{
		"name":"slab_cover",
		"primitives":[{
			"attributes":{
				"POSITION":3
			},
			"indices":2,
			"material":0
		}]
	},
	{
		"name":"slab_inside",
		"primitives":[{
			"attributes":{
				"POSITION":7
			},
			"indices":6,
			"material":0
		}]
	},
	{
		"name":"card_front",
		"primitives":[{
			"attributes":{
				"POSITION":13,
				"NORMAL":14,
				"TEXCOORD_0":15
			},
			"indices":12,
			"material":1
		}]
	},
	{
		"name":"card_back",
		"primitives":[{
			"attributes":{
				"POSITION":17,
				"NORMAL":18,
				"TEXCOORD_0":19
			},
			"indices":16,
			"material":2
		}]
	},
	{
		"name":"label_front",
		"primitives":[{
			"attributes":{
				"POSITION":21,
				"NORMAL":22,
				"TEXCOORD_0":23
			},
			"indices":20,
			"material":3
		}]
	},
	{
		"name":"label_back",
		"primitives":[{
			"attributes":{
				"POSITION":25,
				"NORMAL":26,
				"TEXCOORD_0":27
			},
			"indices":24,
			"material":4
		}]
	},
	{
		"name":"card_edge",
		"primitives":[{
			"attributes":{
				"POSITION":29,
				"NORMAL":30,
				"TEXCOORD_0":31
			},
			"indices":28,
			"material":5
		}]
	},
	{
		"name":"label_edge",
		"primitives":[{
			"attributes":{
				"POSITION":33,
				"NORMAL":34,
				"TEXCOORD_0":35
			},
			"indices":32,
			"material":5
		}]
	}],
	"cameras":[{
		"type":"perspective",
		"perspective":{
			"znear":0.009999999776482582,
			"zfar":10000000000.0,
			"aspectRatio":1.0,
			"yfov":0.4426288902759552
		}
	},
	{
		"type":"perspective",
		"perspective":{
			"znear":0.009999999776482582,
			"zfar":10000000000.0,
			"aspectRatio":1.0,
			"yfov":0.4426288902759552
		}
	}],
	"accessors":[{
		"bufferView":0,
		"type":"SCALAR",
		"componentType":5126,
		"count":120,
		"byteOffset":0,
		"min":[0.0],
		"max":[3.9666666984558107]
	},
	{
		"bufferView":0,
		"type":"VEC4",
		"componentType":5126,
		"count":120,
		"byteOffset":480,
		"min":[0.0,
		-0.9933311939239502,
		-1.0376635550812808e-8,
		-0.9941531419754028],
		"max":[9.928598387887178e-9,
		-1.2246468525851679e-16,
		7.407018109972796e-9,
		1.0]
	},
	{
		"bufferView":1,
		"type":"SCALAR",
		"componentType":5123,
		"count":14919,
		"byteOffset":0,
		"min":[0],
		"max":[2488]
	},
	{
		"bufferView":2,
		"type":"VEC3",
		"componentType":5126,
		"count":2489,
		"byteOffset":0,
		"min":[-4.096650123596191,
		-6.484149932861328,
		-0.28999999165534975],
		"max":[4.096650123596191,
		6.484149932861328,
		0.23500001430511475]
	},
	{
		"bufferView":3,
		"type":"SCALAR",
		"componentType":5126,
		"count":120,
		"byteOffset":0,
		"min":[0.0],
		"max":[3.9666666984558107]
	},
	{
		"bufferView":3,
		"type":"VEC3",
		"componentType":5126,
		"count":120,
		"byteOffset":480,
		"min":[7.470342227349278e-17,
		-24.0,
		0.029999999329447748],
		"max":[7.470342227349278e-17,
		1.0949195847026832e-25,
		4.25]
	},
	{
		"bufferView":4,
		"type":"SCALAR",
		"componentType":5123,
		"count":8964,
		"byteOffset":0,
		"min":[0],
		"max":[1495]
	},
	{
		"bufferView":5,
		"type":"VEC3",
		"componentType":5126,
		"count":1496,
		"byteOffset":0,
		"min":[-3.9691998958587648,
		-6.331699848175049,
		-0.3349999487400055],
		"max":[3.9691998958587648,
		6.331699848175049,
		0.1900000423192978]
	},
	{
		"bufferView":6,
		"type":"SCALAR",
		"componentType":5126,
		"count":120,
		"byteOffset":0,
		"min":[0.0],
		"max":[3.9666666984558107]
	},
	{
		"bufferView":6,
		"type":"VEC3",
		"componentType":5126,
		"count":120,
		"byteOffset":480,
		"min":[7.347880950074885e-18,
		-24.0,
		-4.25],
		"max":[7.347880950074885e-18,
		1.0949195847026832e-25,
		-0.029999999329447748]
	},
	{
		"bufferView":7,
		"type":"SCALAR",
		"componentType":5126,
		"count":120,
		"byteOffset":0,
		"min":[0.0],
		"max":[3.9666666984558107]
	},
	{
		"bufferView":7,
		"type":"VEC3",
		"componentType":5126,
		"count":120,
		"byteOffset":480,
		"min":[2.7917345673664686e-23,
		-21.0,
		0.0],
		"max":[2.7917345673664686e-23,
		1.7725000381469727,
		0.0]
	},
	{
		"bufferView":8,
		"type":"SCALAR",
		"componentType":5123,
		"count":6,
		"byteOffset":0,
		"min":[0],
		"max":[3]
	},
	{
		"bufferView":9,
		"type":"VEC3",
		"componentType":5126,
		"count":4,
		"byteOffset":0,
		"min":[-3.1750001907348635,
		-4.445000171661377,
		-6.0140568081124e-9],
		"max":[3.1750001907348635,
		4.445000171661377,
		6.01405725220161e-9]
	},
	{
		"bufferView":9,
		"type":"VEC3",
		"componentType":5126,
		"count":4,
		"byteOffset":12,
		"min":[1.296139345009187e-15,
		1.3529928288846805e-9,
		1.0],
		"max":[1.3136231638316999e-15,
		1.3529928288846805e-9,
		1.0]
	},
	{
		"bufferView":9,
		"type":"VEC2",
		"componentType":5126,
		"count":4,
		"byteOffset":24,
		"min":[0.0,
		0.0],
		"max":[1.0,
		1.0]
	},
	{
		"bufferView":10,
		"type":"SCALAR",
		"componentType":5123,
		"count":6,
		"byteOffset":0,
		"min":[0],
		"max":[3]
	},
	{
		"bufferView":11,
		"type":"VEC3",
		"componentType":5126,
		"count":4,
		"byteOffset":0,
		"min":[-3.1750001907348635,
		-4.445000171661377,
		-2.596110215691283e-9],
		"max":[3.1750001907348635,
		4.445000171661377,
		2.596110215691283e-9]
	},
	{
		"bufferView":11,
		"type":"VEC3",
		"componentType":5126,
		"count":4,
		"byteOffset":12,
		"min":[-1.3145942871057269e-15,
		-5.840508632282138e-10,
		-1.0],
		"max":[-1.3145942871057269e-15,
		-5.840508632282138e-10,
		-1.0]
	},
	{
		"bufferView":11,
		"type":"VEC2",
		"componentType":5126,
		"count":4,
		"byteOffset":24,
		"min":[0.0,
		0.0],
		"max":[1.0,
		1.0]
	},
	{
		"bufferView":12,
		"type":"SCALAR",
		"componentType":5123,
		"count":6,
		"byteOffset":0,
		"min":[0],
		"max":[3]
	},
	{
		"bufferView":13,
		"type":"VEC3",
		"componentType":5126,
		"count":4,
		"byteOffset":0,
		"min":[-3.4327499866485597,
		-0.9950000643730164,
		-5.811350844986407e-10],
		"max":[3.4327499866485597,
		0.9950000643730164,
		5.811350844986407e-10]
	},
	{
		"bufferView":13,
		"type":"VEC3",
		"componentType":5126,
		"count":4,
		"byteOffset":12,
		"min":[1.2918935923610749e-15,
		5.840509742505162e-10,
		1.0],
		"max":[1.2918935923610749e-15,
		5.840509742505162e-10,
		1.0]
	},
	{
		"bufferView":13,
		"type":"VEC2",
		"componentType":5126,
		"count":4,
		"byteOffset":24,
		"min":[0.0,
		0.0],
		"max":[1.0,
		1.0]
	},
	{
		"bufferView":14,
		"type":"SCALAR",
		"componentType":5123,
		"count":6,
		"byteOffset":0,
		"min":[0],
		"max":[3]
	},
	{
		"bufferView":15,
		"type":"VEC3",
		"componentType":5126,
		"count":4,
		"byteOffset":0,
		"min":[-3.4327499866485597,
		-0.9950001239776611,
		-6.388073403584826e-11],
		"max":[3.4327499866485597,
		0.9950001239776611,
		6.388084505815073e-11]
	},
	{
		"bufferView":15,
		"type":"VEC3",
		"componentType":5126,
		"count":4,
		"byteOffset":12,
		"min":[-1.3079663601725804e-15,
		6.419727943685061e-11,
		-1.0],
		"max":[-1.2917953365391934e-15,
		6.419733494800184e-11,
		-1.0]
	},
	{
		"bufferView":15,
		"type":"VEC2",
		"componentType":5126,
		"count":4,
		"byteOffset":24,
		"min":[0.0,
		0.0],
		"max":[1.0,
		1.0]
	},
	{
		"bufferView":16,
		"type":"SCALAR",
		"componentType":5123,
		"count":24,
		"byteOffset":0,
		"min":[0],
		"max":[15]
	},
	{
		"bufferView":17,
		"type":"VEC3",
		"componentType":5126,
		"count":16,
		"byteOffset":0,
		"min":[-3.1750001907348635,
		-4.445000171661377,
		-0.029899999499320985],
		"max":[3.1750001907348635,
		4.445000171661377,
		0.029899999499320985]
	},
	{
		"bufferView":17,
		"type":"VEC3",
		"componentType":5126,
		"count":16,
		"byteOffset":12,
		"min":[-1.0,
		-1.0,
		0.0],
		"max":[1.0,
		1.0,
		0.0]
	},
	{
		"bufferView":17,
		"type":"VEC2",
		"componentType":5126,
		"count":16,
		"byteOffset":24,
		"min":[0.0,
		0.0],
		"max":[1.0,
		1.0]
	},
	{
		"bufferView":18,
		"type":"SCALAR",
		"componentType":5123,
		"count":24,
		"byteOffset":0,
		"min":[0],
		"max":[15]
	},
	{
		"bufferView":19,
		"type":"VEC3",
		"componentType":5126,
		"count":16,
		"byteOffset":0,
		"min":[-3.4327499866485597,
		-0.9950001239776611,
		-0.029899999499320985],
		"max":[3.4327499866485597,
		0.9950001239776611,
		0.029899999499320985]
	},
	{
		"bufferView":19,
		"type":"VEC3",
		"componentType":5126,
		"count":16,
		"byteOffset":12,
		"min":[-1.0,
		-1.0,
		0.0],
		"max":[1.0,
		1.0,
		0.0]
	},
	{
		"bufferView":19,
		"type":"VEC2",
		"componentType":5126,
		"count":16,
		"byteOffset":24,
		"min":[0.0,
		0.0],
		"max":[1.0,
		1.0]
	}],
	"bufferViews":[{
		"buffer":0,
		"byteOffset":0,
		"byteLength":2400
	},
	{
		"buffer":1,
		"byteOffset":0,
		"byteLength":29838,
		"target":34963
	},
	{
		"buffer":1,
		"byteOffset":29840,
		"byteLength":29868,
		"target":34962
	},
	{
		"buffer":2,
		"byteOffset":0,
		"byteLength":1920
	},
	{
		"buffer":3,
		"byteOffset":0,
		"byteLength":17928,
		"target":34963
	},
	{
		"buffer":3,
		"byteOffset":17928,
		"byteLength":17952,
		"target":34962
	},
	{
		"buffer":4,
		"byteOffset":0,
		"byteLength":1920
	},
	{
		"buffer":5,
		"byteOffset":0,
		"byteLength":1920
	},
	{
		"buffer":6,
		"byteOffset":0,
		"byteLength":12,
		"target":34963
	},
	{
		"buffer":6,
		"byteOffset":12,
		"byteLength":128,
		"target":34962,
		"byteStride":32
	},
	{
		"buffer":7,
		"byteOffset":0,
		"byteLength":12,
		"target":34963
	},
	{
		"buffer":7,
		"byteOffset":12,
		"byteLength":128,
		"target":34962,
		"byteStride":32
	},
	{
		"buffer":8,
		"byteOffset":0,
		"byteLength":12,
		"target":34963
	},
	{
		"buffer":8,
		"byteOffset":12,
		"byteLength":128,
		"target":34962,
		"byteStride":32
	},
	{
		"buffer":9,
		"byteOffset":0,
		"byteLength":12,
		"target":34963
	},
	{
		"buffer":9,
		"byteOffset":12,
		"byteLength":128,
		"target":34962,
		"byteStride":32
	},
	{
		"buffer":10,
		"byteOffset":0,
		"byteLength":48,
		"target":34963
	},
	{
		"buffer":10,
		"byteOffset":48,
		"byteLength":512,
		"target":34962,
		"byteStride":32
	},
	{
		"buffer":11,
		"byteOffset":0,
		"byteLength":48,
		"target":34963
	},
	{
		"buffer":11,
		"byteOffset":48,
		"byteLength":512,
		"target":34962,
		"byteStride":32
	}],
	"buffers":[{
		"uri":"data:application/octet-stream;base64,",
		"byteLength":2400
	},
	{
		"uri":"data:application/octet-stream;base64,",
		"byteLength":59708
	},
	{
		"uri":"data:application/octet-stream;base64,",
		"byteLength":1920
	},
	{
		"uri":"data:application/octet-stream;base64,",
		"byteLength":35880
	},
	{
		"uri":"data:application/octet-stream;base64,",
		"byteLength":1920
	},
	{
		"uri":"data:application/octet-stream;base64,",
		"byteLength":1920
	},
	{
		"uri":"data:application/octet-stream;base64,",
		"byteLength":140
	},
	{
		"uri":"data:application/octet-stream;base64,",
		"byteLength":140
	},
	{
		"uri":"data:application/octet-stream;base64,",
		"byteLength":140
	},
	{
		"uri":"data:application/octet-stream;base64,",
		"byteLength":140
	},
	{
		"uri":"data:application/octet-stream;base64,",
		"byteLength":560
	},
	{
		"uri":"data:application/octet-stream;base64,",
		"byteLength":560
	}],
	"animations":[{
		"samplers":[{
			"input":0,
			"interpolation":"LINEAR",
			"output":1
		},
		{
			"input":4,
			"interpolation":"LINEAR",
			"output":5
		},
		{
			"input":8,
			"interpolation":"LINEAR",
			"output":9
		},
		{
			"input":10,
			"interpolation":"LINEAR",
			"output":11
		}],
		"channels":[{
			"sampler":0,
			"target":{
				"node":2,
				"path":"rotation"
			}
		},
		{
			"sampler":1,
			"target":{
				"node":3,
				"path":"translation"
			}
		},
		{
			"sampler":2,
			"target":{
				"node":4,
				"path":"translation"
			}
		},
		{
			"sampler":3,
			"target":{
				"node":5,
				"path":"translation"
			}
		}]
	}]
}