{
	"nodes":[{
		"name":"camera",
		"translation":[0.0,
		0.0,
		70.0],
		"rotation":[0.0,
		-5.665538686387998e-16,
		0.0,
		1.0],
		"scale":[1.0,
		1.0,
		1.0],
		"camera":0
	},
	{
		"name":"slab",
		"translation":[0.0,
		0.0,
		0.0],
		"rotation":[0.0,
		-0.09619062393903732,
		0.0,
		0.9953629374504089],
		"scale":[1.0,
		1.0,
		1.0],
		"children":[2,
		3]
	},
	{
		"name":"cover",
		"translation":[0.0,
		0.0,
		0.029999999329447748],
		"rotation":[0.0,
		0.0,
		0.0,
		-1.0],
		"scale":[1.0,
		1.0,
		1.0],
		"mesh":0
	},
	{
		"name":"inside",
		"translation":[0.0,
		0.0,
		-0.029999999329447748],
		"rotation":[0.0,
		0.0,
		0.0,
		-1.0],
		"scale":[1.0,
		1.0,
		1.0],
		"mesh":1
	}],
	"asset":{
		"version":"2.0",
		"generator":"Created using the official Cinema 4D glTF Exporter 1.000x284978"
	},
	"materials":[{
		"name":"PBR",
		"pbrMetallicRoughness":{
			"baseColorFactor":[0.8,
			0.8,
			0.8,
			0.0],
			"metallicFactor":1.0,
			"roughnessFactor":0.3
		},
		"emissiveFactor":[0.0,
		0.0,
		0.0],
		"alphaMode":"BLEND",
		"doubleSided":false
	}],
	"scenes":[{
		"nodes":[0,
		1]
	}],
	"animations":[{
		"samplers":[{
			"input":0,
			"interpolation":"LINEAR",
			"output":1
		},
		{
			"input":2,
			"interpolation":"LINEAR",
			"output":3
		}],
		"channels":[{
			"target":{
				"node":1,
				"path":"translation"
			},
			"sampler":0
		},
		{
			"target":{
				"node":1,
				"path":"rotation"
			},
			"sampler":1
		}]
	}],
	"meshes":[{
		"name":"cover",
		"primitives":[{
			"attributes":{
				"POSITION":5,
				"NORMAL":6,
				"TEXCOORD_0":7
			},
			"indices":4,
			"material":0
		}]
	},
	{
		"name":"inside",
		"primitives":[{
			"attributes":{
				"POSITION":9,
				"NORMAL":10,
				"TEXCOORD_0":11
			},
			"indices":8,
			"material":0
		}]
	}],
	"cameras":[{
		"type":"perspective",
		"perspective":{
			"znear":0.009999999776482582,
			"zfar":10000000000.0,
			"aspectRatio":1.7777777910232545,
			"yfov":0.25178632140159609
		}
	}],
	"accessors":[{
		"bufferView":0,
		"componentType":5126,
		"type":"SCALAR",
		"min":[0.0],
		"count":6,
		"byteOffset":0,
		"max":[8.966666221618653]
	},
	{
		"bufferView":0,
		"componentType":5126,
		"type":"VEC3",
		"min":[0.0,
		-16.0,
		-100.0],
		"count":6,
		"byteOffset":24,
		"max":[0.0,
		0.0,
		0.0]
	},
	{
		"bufferView":1,
		"componentType":5126,
		"type":"SCALAR",
		"min":[0.0],
		"count":9,
		"byteOffset":0,
		"max":[8.966666221618653]
	},
	{
		"bufferView":1,
		"componentType":5126,
		"type":"VEC4",
		"min":[0.0,
		-0.9848077297210693,
		0.0,
		-0.9961947202682495],
		"count":9,
		"byteOffset":36,
		"max":[0.0,
		0.1736481785774231,
		0.0,
		1.0]
	},
	{
		"bufferView":2,
		"componentType":5123,
		"type":"SCALAR",
		"min":[0],
		"count":7962,
		"byteOffset":0,
		"max":[3134]
	},
	{
		"bufferView":3,
		"componentType":5126,
		"type":"VEC3",
		"min":[-4.096663951873779,
		-6.484163761138916,
		-0.2900000214576721],
		"count":3135,
		"byteOffset":0,
		"max":[4.096663951873779,
		6.484163761138916,
		0.23499998450279237]
	},
	{
		"bufferView":3,
		"componentType":5126,
		"type":"VEC3",
		"min":[-1.0,
		-1.0,
		-1.0],
		"count":3135,
		"byteOffset":12,
		"max":[1.0,
		1.0,
		1.0]
	},
	{
		"bufferView":3,
		"componentType":5126,
		"type":"VEC2",
		"min":[-1.66680688348797e-13,
		-6.7851828349689908e-15],
		"count":3135,
		"byteOffset":24,
		"max":[1.0,
		1.0]
	},
	{
		"bufferView":4,
		"componentType":5123,
		"type":"SCALAR",
		"min":[0],
		"count":5028,
		"byteOffset":0,
		"max":[1861]
	},
	{
		"bufferView":5,
		"componentType":5126,
		"type":"VEC3",
		"min":[-3.9692203998565676,
		-6.331720352172852,
		-0.3349999785423279],
		"count":1862,
		"byteOffset":0,
		"max":[3.9692203998565676,
		6.331720352172852,
		0.1900000125169754]
	},
	{
		"bufferView":5,
		"componentType":5126,
		"type":"VEC3",
		"min":[-1.0,
		-1.0,
		-1.0],
		"count":1862,
		"byteOffset":12,
		"max":[1.0,
		1.0,
		1.0]
	},
	{
		"bufferView":5,
		"componentType":5126,
		"type":"VEC2",
		"min":[-3.3605219030685e-15,
		-1.8090872089216934e-14],
		"count":1862,
		"byteOffset":24,
		"max":[1.0,
		1.0]
	}],
	"bufferViews":[{
		"buffer":0,
		"byteOffset":0,
		"byteLength":96
	},
	{
		"buffer":0,
		"byteOffset":96,
		"byteLength":180
	},
	{
		"buffer":1,
		"byteOffset":0,
		"byteLength":15924,
		"target":34963
	},
	{
		"buffer":1,
		"byteOffset":15924,
		"byteLength":100320,
		"target":34962,
		"byteStride":32
	},
	{
		"buffer":2,
		"byteOffset":0,
		"byteLength":10056,
		"target":34963
	},
	{
		"buffer":2,
		"byteOffset":10056,
		"byteLength":59584,
		"target":34962,
		"byteStride":32
	}],
	"buffers":[{
		"uri":"data:application/octet-stream;base64,",
		"byteLength":276
	},
	{
		"uri":"data:application/octet-stream;base64,",
		"byteLength":116244
	},
	{
		"uri":"data:application/octet-stream;base64,",
		"byteLength":69640
	}]
}